<svg width="609" height="60" xmlns="http://www.w3.org/2000/svg">
    <path fill="none" stroke="#FDB300" stroke-width="8.6" d="M19.5 4.3 6 21 38.8 54l32.9-32.8L58.2 4.3z"/>
    <path d="M103.1 0h25.7v60h-8.5V34.3h-8.6V60H103V0zm17.2 8.6h-8.6V26h8.6V8.6zM154.5 0h8.6v60h-25.7V0h8.6v51.4h8.5V0zm17.2 0h25.7v8.6h-8.6V60h-8.5V8.6h-8.6V0zm60 60H206V0h25.7v60zm-8.6-8.6V8.6h-8.6v42.8h8.6zm34.3-34.1-8.6-8.7V60h-8.5V0H253l8.6 8.6 8.6-8.4H283V60h-8.6V8.6l-8.5 8.7V60h-8.6V17.3zM291.7 0h25.7v60h-8.6V34.3h-8.5V60h-8.6V0zm17.1 8.6h-8.5V26l8.5-.3V8.6zM326 0h25.7v8.6H343V60h-8.6V8.6H326V0zm34.3 0H386v8.6h-17.2V26l17.2-.3v8.6h-17.2v17.1H386V60h-25.7V0zM583 0h8.6v25.7h8.6V0h8.5v60h-8.5V34.3h-8.6V60H583V0zm-8.6 60h-25.7V0h25.7v17.3H566V8.6h-8.6v42.8h8.6V43h8.5V60zm-60-60h25.8v8.6h-8.6V60H523V8.6h-8.6V0zm-34.2.1L506 0v8.6h-17.2v17.1H506v8.6h-17.2v17.1H506V60h-25.7V.1zM446 0h8.5v25.7l8.6-8.4V0h8.6v21.4L463 30l8.6 8.6V60H463V42.9l-8.6-8.6V60H446V0zm-34.3 42.9h8.6v8.5h8.5V38.6L411.7 26V0h25.7v17.3h-8.6V8.6h-8.5v12.8l17.1 12.9V60h-25.7V42.9z"/>
</svg>