<svg xmlns="http://www.w3.org/2000/svg" xmlns:xlink="http://www.w3.org/1999/xlink"
     x="0" y="0" width="24px" height="24px" viewBox="0 0 24 24">
    <path fill="#27346A" d="M19.32,1.81C18.21,0.54,16.2,0,13.63,0H6.17C5.64,0,5.2,0.38,5.11,0.9L2.01,20.6
        c-0.06,0.39,0.24,0.74,0.63,0.74h4.6L8.4,14l-0.04,0.23c0.08-0.52,0.53-0.9,1.05-0.9h2.19c4.3,0,7.66-1.75,8.65-6.8
        c0.03-0.15,0.05-0.29,0.08-0.44c-0.12-0.07-0.12-0.07,0,0C20.62,4.23,20.33,2.96,19.32,1.81"/>
    <path fill="#2790C3" d="M20.25,6.53c-0.98,5.05-4.35,6.8-8.65,6.8H9.42c-0.53,0-0.97,0.38-1.05,0.9l-1.44,9.12
        C6.87,23.69,7.14,24,7.48,24h3.88c0.46,0,0.85-0.33,0.92-0.79l0.04-0.2l0.73-4.64l0.05-0.26c0.07-0.45,0.46-0.79,0.92-0.79h0.58
        c3.76,0,6.7-1.53,7.56-5.95c0.36-1.85,0.17-3.39-0.78-4.47c-0.29-0.33-0.65-0.6-1.06-0.82C20.31,6.24,20.28,6.39,20.25,6.53
        L20.25,6.53z"/>
    <path fill="#1F264F" d="M19.3,5.69C19.15,5.64,19,5.6,18.84,5.57c-0.16-0.04-0.32-0.07-0.49-0.09c-0.59-0.1-1.24-0.14-1.93-0.14h-5.85
        c-0.14,0-0.28,0.03-0.4,0.09c-0.27,0.13-0.47,0.38-0.52,0.7L8.4,14l-0.04,0.23c0.08-0.52,0.53-0.9,1.05-0.9h2.19
        c4.3,0,7.66-1.75,8.65-6.8c0.03-0.15,0.05-0.29,0.08-0.44c-0.25-0.13-0.52-0.24-0.81-0.34C19.45,5.73,19.37,5.71,19.3,5.69"/>
</svg>