<svg xmlns="http://www.w3.org/2000/svg" xmlns:xlink="http://www.w3.org/1999/xlink"
     x="0" y="0" width="24px" height="24px" viewBox="0 0 24 24">
    <path fill="#03C606" d="M22.49,7.28c-4.81,2.7-9.5,5.34-14.42,8.1c-0.91-1.99-1.68-3.65-2.44-5.31c0.12-0.08,0.24-0.17,0.36-0.25
        c1.08,0.64,2.16,1.28,3.31,1.96c4.13-1.82,8.2-3.6,12.55-5.51c-0.72-0.7-1.14-1.2-1.64-1.59C15.64,1.1,8.33,1.11,3.76,4.69
        c-4.56,3.57-5.03,9.18-1.09,13.4c0.52,0.56,1.18,1,1.68,1.41c-0.17,1.23-0.3,2.18-0.49,3.5c0.95-0.44,2.1-0.99,2.1-0.99
        s2.05-0.78,3.32-0.6c1.8,0.26,3.7,0.3,5.49,0.04c4.6-0.69,8.2-4.01,9.05-8.07C24.28,11.22,23.86,9.24,22.49,7.28z"/>
</svg>
