<svg xmlns="http://www.w3.org/2000/svg" xmlns:xlink="http://www.w3.org/1999/xlink"
     x="0" y="0" width="24px" height="24px" viewBox="0 0 24 24">
     <path fill="#01A0E9" d="M16.26,13.93C17.34,11.86,17.55,10,17.87,9H13V7h6V6h-6V3h-2v3H5v1h6v2H6v1h8.81c-0.02,1-0.46,1.9-0.91,2.96
         c-0.51-0.1-5.36-1.55-7.44-1.44c-1.21,0.07-2.35,0.35-3.27,1.17c-1.19,1.06-1.69,2.41-1.37,3.97c0.33,1.62,1.41,2.67,2.95,3.15
         c1.99,0.63,3.95,0.38,5.82-0.55c1.59-0.79,2.95-1.88,4.12-3.26c3.12,1.37,6.31,2.69,9.3,4v1c0,1.66-1.34,3-3,3H3c-1.66,0-3-1.34-3-3
         V3c0-1.66,1.34-3,3-3h18c1.66,0,3,1.34,3,3v13.34C21.23,15.6,18.78,14.89,16.26,13.93z M4.83,13.27c-1.23,0.34-2.07,1.22-2.14,2.36
         c-0.07,1.18,0.6,2.09,1.88,2.52c1.19,0.4,2.38,0.44,3.58,0.03c1.75-0.59,3.13-1.66,4.38-3.25c-0.92-0.43-1.67-0.84-2.46-1.14
         C8.37,13.17,6.65,12.78,4.83,13.27z"/>
</svg>