<svg xmlns="http://www.w3.org/2000/svg" xmlns:xlink="http://www.w3.org/1999/xlink"
     x="0" y="0" width="16px" height="16px" viewBox="0 0 16 16">
     <path fill="#005099" d="M14,16H2c-1.1046,0-2-0.8954-2-2V2c0-1.1046,0.8954-2,2-2h12c1.1046,0,2,0.8954,2,2v12 C16,15.1046,15.1046,16,14,16z"/>
     <path fill="#FFFFFF" d="M6.5,5H4v6h1V9h1.5C7.3271,9,8,8.3271,8,7.5v-1C8,5.6729,7.3271,5,6.5,5z M7,7.5C7,7.7754,6.7754,8,6.5,8H5
	      V6h1.5C6.7754,6,7,6.2246,7,6.5V7.5z M10.5,11H9v-1h1.5c0.4072,0,0.4961-0.2725,0.5-0.501c0-0.1846-0.3027-0.3535-0.7305-0.5723
          C9.7178,8.6445,9.0312,8.2939,9,7.5205C8.9795,6.9873,9.1895,6.6514,9.3691,6.4639C9.8027,6.0127,10.4385,6,10.5098,6H12v1h-1.4902
          c-0.0684,0.002-0.3037,0.0342-0.4219,0.1592C10.0645,7.1846,9.9912,7.2627,10,7.4805c0.0068,0.1895,0.3887,0.3838,0.7246,0.5557
          C11.2627,8.3115,12,8.6885,12,9.5c0.001,0.0615-0.0059,0.6572-0.4326,1.0889C11.3818,10.7764,11.0459,11,10.5,11z"/>
</svg>
