<svg xmlns="http://www.w3.org/2000/svg" xmlns:xlink="http://www.w3.org/1999/xlink"
    width="30" height="192" viewport="0 0 30 192">
    <style>
        .gray { fill: #ccc; }
    </style>

    <symbol id="dribbble" viewBox="0 0 24 24">
        <path d="M12,24C5.3833,24,0,18.6167,0,12S5.3833,0,12,0c6.6171,0,12,5.3833,12,12S18.6171,24,12,24z
             M22.1203,13.6428c-0.3505-0.1105-3.1725-0.9525-6.3845-0.4383c1.3407,3.6841,1.8859,6.6845,1.991,7.3077
            C20.0266,18.9577,21.6636,16.4945,22.1203,13.6428z M16.0038,21.4508c-0.1523-0.8991-0.7474-4.0331-2.1866-7.7729
            c-0.0223,0.0077-0.0451,0.015-0.0674,0.0227c-5.7814,2.0149-7.8567,6.0241-8.0413,6.401c1.738,1.3554,3.9221,2.164,6.2915,2.164
            C13.4198,22.2656,14.7733,21.9752,16.0038,21.4508z M4.385,18.869c0.2322-0.3973,3.0454-5.0551,8.3317-6.7639
            c0.1336-0.0432,0.2684-0.0838,0.4039-0.122c-0.2574-0.5822-0.5376-1.1653-0.8309-1.7395
            c-5.1189,1.5319-10.0858,1.4681-10.5344,1.4586c-0.0029,0.1044-0.0051,0.2084-0.0051,0.3135
            C1.7501,14.6481,2.7481,17.0518,4.385,18.869z M1.9666,9.9163c0.4585,0.0062,4.6816,0.0245,9.476-1.2488
            c-1.6985-3.019-3.5303-5.5572-3.8002-5.9278C4.7746,4.0921,2.6312,6.7358,1.9666,9.9163z M9.598,2.0508
            c0.2834,0.3793,2.1448,2.9143,3.8247,6.0004c3.6445-1.366,5.1874-3.4399,5.3719-3.7025C16.9845,2.7425,14.6045,1.7659,12,1.7659
            C11.1731,1.7659,10.3689,1.8651,9.598,2.0508z M19.9339,5.5338c-0.2157,0.2926-1.9336,2.4943-5.7235,4.0415
            c0.2387,0.4882,0.4672,0.9847,0.6804,1.4846c0.0751,0.1772,0.1487,0.3534,0.2204,0.5288c3.4105-0.4288,6.7995,0.2585,7.1375,0.3299
            C22.2261,9.4995,21.3618,7.2781,19.9339,5.5338z"/>
    </symbol>
    <symbol id="dribbble-color" viewBox="0 0 24 24">
        <path fill="#EA4C89" d="M12.5272,1.2123c6.1841,0,11.1973,5.0156,11.1973,11.2028
            s-5.0132,11.2028-11.1973,11.2028c-6.184,0-11.1972-5.0157-11.1972-11.2028S6.3431,1.2123,12.5272,1.2123L12.5272,1.2123z"/>
        <use xlink:href="#dribbble" fill="#C32361"/>
    </symbol>
    <symbol id="github" viewBox="0 0 24 24">
        <path d="M11.9992,0C5.3732,0,0,5.3725,0,12.0007
            c0,5.3013,3.438,9.799,8.2069,11.386c0.6,0.1101,0.819-0.2604,0.819-0.5784c0-0.2849-0.0104-1.0395-0.0162-2.0409
            c-3.338,0.7252-4.0423-1.6086-4.0423-1.6086c-0.5457-1.3863-1.3323-1.7553-1.3323-1.7553
            c-1.0895-0.7446,0.0824-0.7295,0.0824-0.7295c1.2042,0.0849,1.8381,1.2366,1.8381,1.2366c1.0705,1.8338,2.8085,1.3043,3.4923,0.9971
            c0.109-0.7755,0.419-1.3043,0.7619-1.6042c-2.6647-0.3028-5.466-1.3323-5.466-5.9308c0-1.31,0.4676-2.3812,1.2352-3.2201
            C5.4555,7.8491,5.0437,6.629,5.6966,4.9769c0,0,1.0075-0.3227,3.2999,1.2302c0.9572-0.2662,1.9837-0.3993,3.0042-0.4039
            c1.019,0.0046,2.0457,0.1378,3.0042,0.4039c2.291-1.5528,3.2967-1.2302,3.2967-1.2302c0.6547,1.6521,0.2428,2.8722,0.1194,3.1758
            c0.7691,0.8388,1.2335,1.91,1.2335,3.2201c0,4.6099-2.8057,5.6243-5.479,5.9214c0.4309,0.3705,0.8147,1.1029,0.8147,2.2222
            c0,1.6042-0.0147,2.8985-0.0147,3.292c0,0.3209,0.2161,0.6942,0.8251,0.577C20.5648,21.7954,24,17.3006,24,12.0007
            C24,5.3725,18.6267,0,11.9992,0z"/>
    </symbol>
    <symbol id="github-color" viewBox="0 0 24 24">
        <use xlink:href="#github" fill="#4078c0"/>
    </symbol>
    <symbol id="behance" viewBox="0 0 30 24">
        <path d="M8.1924,17.9345c0.391,0,0.7621-0.0349,1.1114-0.1128c0.3541-0.0779,0.6685-0.2003,0.9337-0.3821
            c0.2652-0.1743,0.4846-0.4135,0.6445-0.7184c0.1599-0.3014,0.2365-0.6931,0.2365-1.1667c0-0.9275-0.2611-1.5864-0.7799-1.9863
            c-0.5201-0.3944-1.2139-0.5905-2.0669-0.5905H3.9629v4.9567H8.1924L8.1924,17.9345z M7.9737,10.2725
            c0.702,0,1.2829-0.1668,1.7436-0.5051c0.4559-0.3322,0.6773-0.8824,0.6773-1.637c0-0.4183-0.0738-0.7648-0.2215-1.0335
            c-0.1524-0.2686-0.3547-0.4791-0.6104-0.6261C9.3093,6.3177,9.0229,6.2118,8.69,6.155C8.364,6.0908,8.0216,6.0662,7.6709,6.0662
            h-3.708v4.2063H7.9737L7.9737,10.2725z M8.4863,3c0.8605,0,1.6377,0.0745,2.3478,0.2283c0.7061,0.1497,1.3089,0.3998,1.8181,0.743
            c0.5017,0.3424,0.894,0.7983,1.1749,1.3725c0.2741,0.5659,0.4122,1.274,0.4122,2.112c0,0.9063-0.2057,1.663-0.6172,2.2679
            c-0.4142,0.6042-1.0232,1.0998-1.8366,1.4846c1.108,0.3185,1.9282,0.8797,2.4722,1.6766c0.5468,0.8024,0.814,1.7634,0.814,2.8892
            c0,0.9132-0.175,1.6985-0.5236,2.3594c-0.3527,0.6691-0.8325,1.2118-1.4237,1.6301c-0.596,0.4224-1.2809,0.732-2.0478,0.9337
            C10.3181,20.8988,9.5307,21,8.7242,21H0V3H8.4863L8.4863,3z M24.3777,10.8792c-0.418-0.4623-1.1251-0.7125-1.9879-0.7125
            c-0.5616,0-1.0265,0.0946-1.3982,0.2872c-0.3636,0.1899-0.6622,0.4267-0.8896,0.7051c-0.2268,0.2831-0.3818,0.5817-0.4717,0.901
            c-0.0899,0.3113-0.1436,0.5938-0.1603,0.8433h5.7175C25.1037,12.007,24.797,11.3449,24.3777,10.8792L24.3777,10.8792z
             M20.3402,17.6005c0.526,0.5139,1.2868,0.7729,2.2724,0.7729c0.7085,0,1.321-0.1791,1.835-0.5367
            c0.5092-0.3563,0.8192-0.738,0.9393-1.1338h3.0943c-0.4971,1.5398-1.2519,2.6394-2.2818,3.3009
            C25.1822,20.6686,23.941,21,22.4951,21c-1.0077,0-1.9148-0.1637-2.7286-0.4844c-0.8138-0.3254-1.4941-0.7816-2.0664-1.376
            c-0.5575-0.5971-0.9903-1.3029-1.2989-2.1315c-0.3053-0.8246-0.4596-1.7377-0.4596-2.7273c0-0.9567,0.1603-1.8504,0.4723-2.6763
            c0.3194-0.8286,0.7601-1.5438,1.3398-2.1436c0.5817-0.6032,1.2707-1.0788,2.0731-1.4264c0.8031-0.3469,1.688-0.5206,2.6682-0.5206
            c1.0822,0,2.0302,0.208,2.8427,0.6327c0.8098,0.418,1.4733,0.9849,1.9953,1.6947c0.5213,0.7092,0.8923,1.5196,1.1245,2.428
            c0.2295,0.9078,0.3106,1.8558,0.2442,2.8487H19.47C19.47,16.1292,19.8121,17.0865,20.3402,17.6005L20.3402,17.6005z M18.7514,4.1855
            h7.162v1.7437h-7.162V4.1855z"/>
    </symbol>
    <symbol id="behance-color" viewBox="0 0 30 24">
        <use xlink:href="#behance" fill="#009cff"/>
    </symbol>
    <symbol id="weibo" viewBox="0 0 28 24">
        <path d="M20.401,11.5918c-0.3825-0.1148-0.6447-0.1927-0.4442-0.6953c0.4336-1.0909,0.4786-2.0322,0.0082-2.7036
            c-0.8816-1.2598-3.2938-1.1916-6.0587-0.034c0-0.0015-0.8682,0.3799-0.6464-0.3089c0.4255-1.3672,0.3614-2.5126-0.3006-3.1736
            c-1.5002-1.5012-5.4893,0.0566-8.91,3.4764C1.4875,10.7153,0,13.4304,0,15.7784C0,20.2695,5.7592,23,11.3934,23
            c7.3862,0,12.2994-4.2914,12.2994-7.6985C23.6928,13.243,21.9589,12.0748,20.401,11.5918z M11.4086,21.3903
            c-4.4959,0.4437-8.3768-1.5886-8.6689-4.5406c-0.292-2.9512,3.1171-5.7038,7.6125-6.1483c4.4964-0.4445,8.3775,1.5878,8.6689,4.5383
            C19.3127,18.1927,15.9051,20.9455,11.4086,21.3903z M25.3059,3.3729c1.7843,1.9756,2.2652,4.6689,1.5039,7.0315
            c-0.0003,0.0009-0.0003,0.003-0.0003,0.004c-0.177,0.5458-0.7636,0.8447-1.3092,0.668c-0.5478-0.1768-0.8471-0.7621-0.6702-1.3093
            l-0.0003-0.0003c0.5426-1.6796,0.1985-3.5956-1.0684-5.0003c-1.268-1.4048-3.1376-1.9414-4.8652-1.5746
            c-0.562,0.1198-1.1146-0.2389-1.2344-0.8003c-0.1203-0.5609,0.2379-1.1137,0.7999-1.234h0.001
            C20.8912,0.6415,23.5222,1.3954,25.3059,3.3729 M22.5667,5.8449c0.8699,0.963,1.1026,2.2748,0.7307,3.4256
            c-0.1518,0.4711-0.6565,0.7276-1.127,0.577c-0.4703-0.1523-0.7276-0.6576-0.576-1.1275h-0.001
            c0.1823-0.563,0.0681-1.2047-0.3567-1.6756c-0.4244-0.47-1.0516-0.6483-1.6301-0.526v-0.001
            c-0.4825,0.105-0.9581-0.2047-1.0615-0.6867c-0.1037-0.4841,0.2045-0.9601,0.6881-1.0631
            C20.4167,4.5159,21.6987,4.8817,22.5667,5.8449 M11.8578,12.9731c-2.1394-0.5566-4.5575,0.5096-5.4868,2.3947
            c-0.9464,1.9226-0.0313,4.0568,2.1303,4.7545c2.2389,0.722,4.878-0.3844,5.7955-2.4597
            C15.2018,15.634,14.0719,13.5454,11.8578,12.9731z M10.2242,17.883c-0.4349,0.6938-1.3661,0.9978-2.0675,0.6776
            c-0.6913-0.3148-0.8954-1.1205-0.4604-1.7971c0.4296-0.6737,1.3295-0.9738,2.0257-0.6819
            C10.4264,16.3818,10.6512,17.1823,10.2242,17.883z M11.6568,16.0444c-0.1573,0.2687-0.5048,0.3981-0.7772,0.286
            c-0.2678-0.1102-0.3517-0.4109-0.1995-0.6751c0.1566-0.2628,0.4907-0.3911,0.7578-0.2851
            C11.7093,15.4695,11.8068,15.7736,11.6568,16.0444z"/>
    </symbol>
    <symbol id="weibo-color" viewBox="0 0 28 24">
        <path fill="#D52B2A" d="M20.401,11.5918c-0.3825-0.1148-0.6447-0.1927-0.4442-0.6953c0.4336-1.0909,0.4786-2.0322,0.0082-2.7036
            c-0.8816-1.2598-3.2938-1.1916-6.0587-0.034c0-0.0015-0.8682,0.3799-0.6464-0.3089c0.4255-1.3672,0.3614-2.5126-0.3006-3.1736
            c-1.5002-1.5012-5.4893,0.0566-8.91,3.4764C1.4875,10.7153,0,13.4304,0,15.7784C0,20.2695,5.7592,23,11.3934,23
            c7.3862,0,12.2994-4.2914,12.2994-7.6985C23.6928,13.243,21.9589,12.0748,20.401,11.5918z M11.4086,21.3903
            c-4.4959,0.4437-8.3768-1.5886-8.6689-4.5406c-0.292-2.9512,3.1171-5.7038,7.6125-6.1483
            c4.4964-0.4445,8.3775,1.5878,8.6689,4.5383C19.3127,18.1927,15.9051,20.9455,11.4086,21.3903z"/>
        <path fill="#E89214" d="M25.3059,3.3729c1.7843,1.9756,2.2652,4.6689,1.5039,7.0315c-0.0003,0.0009-0.0003,0.003-0.0003,0.004
            c-0.177,0.5458-0.7636,0.8447-1.3092,0.668c-0.5478-0.1768-0.8471-0.7621-0.6702-1.3093l-0.0003-0.0003
            c0.5426-1.6796,0.1985-3.5956-1.0684-5.0003c-1.268-1.4048-3.1376-1.9414-4.8652-1.5746c-0.562,0.1198-1.1146-0.2389-1.2344-0.8003
            c-0.1203-0.5609,0.2379-1.1137,0.7999-1.234h0.001C20.8912,0.6415,23.5222,1.3954,25.3059,3.3729 M22.5667,5.8449
            c-0.8681-0.9632-2.15-1.329-3.3333-1.0774c-0.4836,0.103-0.7919,0.5791-0.6881,1.0631c0.1034,0.482,0.5791,0.7917,1.0615,0.6867
            v0.001c0.5784-0.1223,1.2057,0.056,1.6301,0.526c0.4248,0.4709,0.539,1.1126,0.3567,1.6756h0.001
            c-0.1516,0.4699,0.1056,0.9752,0.576,1.1275c0.4705,0.1506,0.9752-0.1059,1.127-0.577
            C23.6693,8.1197,23.4367,6.8078,22.5667,5.8449"/>
        <path fill="#040000" d="M11.8578,12.9731c-2.1394-0.5566-4.5575,0.5096-5.4868,2.3947c-0.9464,1.9226-0.0313,4.0568,2.1303,4.7545
            c2.2389,0.722,4.878-0.3844,5.7955-2.4597C15.2018,15.634,14.0719,13.5454,11.8578,12.9731z M10.2242,17.883
            c-0.4349,0.6938-1.3661,0.9978-2.0675,0.6776c-0.6913-0.3148-0.8954-1.1205-0.4604-1.7971
            c0.4296-0.6737,1.3295-0.9738,2.0257-0.6819C10.4264,16.3818,10.6512,17.1823,10.2242,17.883z M11.6568,16.0444
            c-0.1573,0.2687-0.5048,0.3981-0.7772,0.286c-0.2678-0.1102-0.3517-0.4109-0.1995-0.6751
            c0.1566-0.2628,0.4907-0.3911,0.7578-0.2851C11.7093,15.4695,11.8068,15.7736,11.6568,16.0444z"/>
    </symbol>

    <use xlink:href="#dribbble" y="0" width="24" height="24" class="gray"/>
    <use xlink:href="#dribbble-color" y="24" width="24" height="24"/>
    <use xlink:href="#github" y="48" width="24" height="24" class="gray"/>
    <use xlink:href="#github-color" y="72" width="24" height="24"/>
    <use xlink:href="#behance" y="96" width="30" height="24" class="gray"/>
    <use xlink:href="#behance-color" y="120" width="30" height="24"/>
    <use xlink:href="#weibo" y="144" width="28" height="24" class="gray"/>
    <use xlink:href="#weibo-color" y="168" width="28" height="24"/>

</svg>


